<?xml version="1.0" standalone="no"?>
<!DOCTYPE svg PUBLIC "-//W3C//DTD SVG 20010904//EN"
 "http://www.w3.org/TR/2001/REC-SVG-20010904/DTD/svg10.dtd">
<svg version="1.0" xmlns="http://www.w3.org/2000/svg"
 width="500.000000pt" height="500.000000pt" viewBox="0 0 500.000000 500.000000"
 preserveAspectRatio="xMidYMid meet">

<g transform="translate(0.000000,500.000000) scale(0.100000,-0.100000)"
fill="#000000" stroke="none">
<path d="M0 2500 l0 -2500 2500 0 2500 0 0 2500 0 2500 -2500 0 -2500 0 0
-2500z m2525 1380 c0 -14 12 -45 25 -70 21 -38 24 -59 25 -135 0 -49 -4 -101
-8 -115 l-9 -25 17 24 c18 23 71 51 100 51 11 0 6 -14 -19 -52 -50 -79 -62
-123 -42 -153 20 -30 51 -32 66 -6 5 11 19 97 31 191 16 133 18 174 9 180 -17
10 -8 44 13 48 23 5 33 -24 17 -53 -10 -18 -10 -56 -1 -181 7 -88 14 -166 17
-176 6 -19 28 -30 49 -22 20 8 95 160 95 194 0 39 -23 56 -56 41 -36 -16 -37
-16 -8 39 31 60 44 70 44 36 0 -58 66 -73 103 -24 18 24 19 31 8 52 -17 31 -7
46 28 46 15 0 33 6 40 13 18 18 3 -20 -57 -139 -80 -160 -111 -238 -128 -320
l-16 -78 28 -24 c24 -19 37 -22 70 -18 38 5 43 3 48 -19 7 -29 24 -32 41 -9 9
13 16 14 33 5 23 -12 20 -41 -3 -41 -32 0 -22 -22 32 -72 31 -29 64 -60 72
-68 14 -13 20 -13 48 0 18 8 32 23 33 33 0 17 1 17 28 0 38 -24 38 -23 24 -31
-7 -5 -1 -12 17 -19 25 -9 28 -8 24 8 -3 11 -9 19 -14 19 -5 0 -9 7 -9 15 0 8
9 15 19 15 26 0 36 17 14 23 -10 3 1 3 23 0 54 -7 84 10 84 46 0 39 -15 48
-88 57 -69 7 -84 18 -56 39 12 9 14 14 6 15 -23 0 -2 20 22 20 12 0 26 4 31 9
9 7 92 31 110 31 3 0 3 -4 0 -10 -4 -6 6 -10 23 -10 46 0 68 -34 64 -102 -4
-52 -2 -57 19 -60 33 -5 35 -26 3 -30 -32 -4 -50 -46 -30 -72 9 -14 17 -11 58
24 37 32 50 52 63 95 16 57 12 78 -19 105 -19 15 -21 40 -4 40 6 0 33 -23 60
-52 37 -40 48 -48 48 -33 1 20 1 20 15 1 15 -19 15 -19 15 1 0 12 -5 34 -10
49 -16 40 -2 43 30 7 20 -23 31 -48 36 -83 4 -27 10 -47 15 -44 5 3 9 -5 9
-17 0 -52 46 30 65 115 9 42 25 19 27 -36 0 -34 -8 -62 -34 -112 -39 -72 -33
-88 20 -48 27 20 32 22 32 8 0 -32 -21 -56 -76 -87 -44 -25 -52 -34 -43 -45 7
-8 31 -14 58 -14 39 -1 43 -2 27 -12 -11 -6 -39 -16 -63 -22 -23 -6 -44 -15
-45 -21 -2 -5 16 -19 40 -30 23 -11 42 -23 42 -27 0 -11 -68 -10 -107 1 -44
13 -48 -6 -11 -49 28 -34 28 -35 8 -38 -12 -2 -35 7 -53 21 -42 31 -65 25 -37
-10 11 -14 20 -30 20 -34 0 -18 -37 -8 -60 16 -29 31 -40 24 -40 -26 0 -48
-18 -49 -40 -1 -17 37 -40 42 -40 10 0 -26 -16 -55 -25 -47 -3 4 -6 23 -7 43
-1 23 -6 36 -15 36 -10 0 -11 -5 -3 -19 5 -11 10 -31 10 -45 0 -15 6 -26 14
-26 8 0 19 -20 26 -47 36 -131 96 -210 167 -220 29 -4 42 -1 53 11 16 20 2 51
-55 127 -49 64 -54 101 -22 133 19 18 37 26 62 26 47 0 73 15 88 48 l11 27 4
-33 c4 -39 22 -33 22 8 0 16 5 32 11 36 8 5 10 -6 7 -35 -2 -22 -2 -41 -1 -41
6 0 28 49 34 80 7 31 8 29 5 -13 -2 -26 -11 -56 -20 -66 -23 -25 -20 -38 4
-16 16 15 20 15 20 3 0 -8 -9 -23 -20 -33 -18 -17 -28 -18 -83 -8 -34 6 -72 7
-84 2 -45 -17 -35 -99 10 -84 40 13 93 17 78 6 -11 -7 -8 -10 15 -14 25 -3 24
-4 -9 -6 -24 0 -40 -7 -44 -17 -7 -19 10 -79 23 -78 5 1 21 4 37 8 39 9 34
-12 -8 -30 -19 -8 -41 -27 -49 -43 -17 -33 -34 -41 -82 -41 -48 0 -84 21 -137
80 -51 57 -63 53 -52 -17 11 -74 21 -93 51 -93 14 0 37 -9 50 -19 20 -16 21
-20 8 -25 -9 -3 -24 -6 -34 -6 -32 0 -31 -17 3 -39 l32 -21 -52 0 c-61 0 -74
-13 -36 -35 l28 -16 -43 6 c-52 7 -67 -14 -31 -46 28 -24 34 -26 -115 31 -90
35 -97 39 -77 50 19 10 25 9 36 -6 12 -17 14 -16 34 16 16 26 21 45 17 75 -8
62 -23 132 -25 110 -1 -26 -26 -62 -52 -76 -21 -11 -21 -11 0 18 11 15 27 51
36 78 16 54 19 82 5 50 -7 -17 -9 -17 -9 -2 -1 20 -11 21 -44 6 -27 -12 -42
-39 -53 -93 -5 -29 -9 -34 -19 -26 -10 8 -16 6 -25 -7 -8 -13 -13 -14 -16 -5
-3 6 -12 12 -20 12 -17 0 -17 9 1 85 21 88 17 122 -5 39 -21 -82 -84 -212
-105 -221 -8 -3 -26 -2 -40 1 l-24 6 34 63 c43 78 46 97 6 36 -60 -90 -63 -92
-113 -85 l-44 7 11 63 c9 59 15 70 85 149 l75 86 27 -26 c22 -21 28 -23 28
-11 0 9 -13 27 -29 40 -42 34 -80 198 -75 323 2 59 0 82 -5 65 -5 -14 -9 -44
-10 -67 l-1 -41 -52 -7 c-29 -3 -71 -8 -93 -11 -39 -5 -42 -3 -93 55 -29 33
-82 81 -117 107 l-65 46 0 73 c0 47 4 77 12 81 7 4 55 10 108 14 l95 6 -59 8
c-32 5 -90 6 -128 2 -85 -8 -186 8 -252 40 -61 29 -93 31 -49 3 l31 -20 -46
-42 c-25 -23 -58 -56 -74 -73 -21 -24 -38 -32 -77 -37 -54 -6 -131 -41 -178
-81 -22 -19 -33 -22 -41 -14 -29 29 -93 -89 -111 -202 -12 -70 -15 -200 -5
-200 3 0 25 21 49 48 l44 47 75 -74 c71 -70 75 -77 85 -136 6 -34 19 -87 30
-118 18 -56 18 -56 -3 -75 -12 -11 -43 -22 -73 -25 l-51 -6 -40 52 c-51 67
-77 119 -101 204 -19 65 -20 66 -20 27 -1 -64 25 -137 79 -216 l48 -73 -36 -8
c-20 -4 -42 -5 -49 -3 -20 8 -83 142 -103 220 -22 83 -26 49 -5 -39 18 -76 18
-85 1 -85 -8 0 -17 -6 -20 -12 -3 -9 -8 -8 -16 5 -9 13 -15 15 -25 7 -10 -8
-14 -3 -19 26 -11 54 -26 81 -53 93 -33 15 -43 14 -44 -6 0 -15 -2 -15 -9 2
-14 32 -11 4 5 -50 9 -27 25 -63 36 -78 20 -27 20 -28 2 -18 -27 14 -43 35
-53 68 l-8 28 -1 -31 c-1 -17 -8 -48 -16 -68 -14 -32 -14 -40 0 -73 23 -56 35
-67 50 -47 10 14 15 15 35 4 22 -12 19 -14 -56 -42 -43 -16 -97 -36 -119 -44
-40 -14 -40 -14 -17 5 35 30 19 52 -32 45 l-41 -5 28 16 c38 22 25 35 -36 35
l-52 0 32 21 c35 23 35 39 0 39 -12 0 -28 4 -35 9 -18 11 28 41 63 41 29 0 39
19 50 93 11 70 -1 74 -52 17 -54 -60 -89 -80 -141 -80 -42 0 -60 11 -85 53
-10 15 -24 27 -31 27 -16 0 -66 39 -51 40 6 0 25 -4 43 -9 30 -9 34 -8 43 16
18 48 8 67 -36 74 -34 5 -36 6 -10 8 23 1 27 3 15 11 -21 14 35 14 60 0 35
-19 67 12 54 52 -9 29 -42 36 -111 25 -55 -10 -65 -9 -83 8 -11 10 -20 24 -20
32 0 12 3 11 16 -2 25 -25 29 -9 5 21 -13 17 -21 40 -20 63 l1 36 7 -30 c8
-32 29 -75 36 -75 3 0 1 10 -4 23 -10 26 1 68 13 48 4 -6 5 -18 3 -26 -3 -7 1
-21 10 -32 10 -12 13 -13 10 -3 -2 8 -1 24 3 35 7 19 9 18 18 -7 14 -33 40
-48 87 -48 39 0 85 -35 85 -66 0 -25 -28 -78 -65 -121 -63 -74 -53 -122 23
-110 59 9 114 78 149 182 15 49 33 85 40 85 8 0 12 11 12 28 -2 23 -2 24 -6 5
-8 -41 -33 -19 -33 28 0 30 -23 22 -40 -13 -22 -48 -40 -47 -40 1 0 50 -11 57
-40 26 -23 -24 -60 -34 -60 -16 0 4 9 20 20 34 28 35 5 41 -37 10 -18 -14 -41
-23 -53 -21 -20 3 -20 4 8 38 37 43 33 62 -11 49 -39 -11 -107 -12 -107 -1 0
4 19 16 42 27 24 11 43 24 43 29 0 5 -21 15 -46 21 -25 7 -54 17 -65 23 -16
10 -12 11 27 12 27 0 51 6 58 14 9 11 1 20 -43 45 -55 31 -76 55 -76 87 0 14
5 12 32 -8 53 -40 59 -24 20 49 -26 49 -35 78 -34 111 0 55 18 78 27 36 19
-85 65 -167 65 -115 0 12 5 19 10 16 6 -4 10 7 10 25 0 39 21 90 49 114 26 24
35 17 21 -18 -5 -15 -10 -37 -10 -49 0 -20 0 -20 15 -1 14 19 14 19 15 -1 0
-15 11 -7 48 33 27 29 54 52 60 52 17 0 15 -25 -4 -40 -31 -27 -35 -48 -19
-105 13 -42 27 -64 63 -95 41 -37 48 -39 58 -25 20 27 2 69 -30 73 -32 4 -30
25 3 30 21 3 23 8 19 60 -4 68 18 102 64 102 17 0 27 4 23 10 -3 6 -3 10 0 10
18 0 101 -24 110 -31 5 -5 19 -9 31 -9 24 0 45 -20 22 -20 -8 -1 -6 -6 6 -15
28 -21 13 -32 -56 -39 -73 -9 -88 -18 -88 -57 0 -37 30 -53 84 -46 24 4 33 3
22 -2 -23 -9 -4 -26 19 -17 10 4 15 -1 15 -14 0 -11 -4 -20 -9 -20 -5 0 -11
-8 -14 -19 -4 -16 -1 -17 24 -8 18 7 24 14 17 19 -14 8 -14 7 25 31 26 17 27
17 27 0 1 -10 15 -25 33 -33 28 -13 34 -13 48 0 8 8 41 39 72 68 54 50 64 72
32 72 -23 0 -26 29 -3 41 17 9 24 8 33 -5 17 -23 34 -20 41 9 6 23 10 24 44
19 49 -8 100 24 100 63 0 54 -34 150 -106 301 -95 197 -110 231 -93 215 7 -7
25 -13 40 -13 35 0 45 -15 28 -46 -11 -21 -10 -28 8 -52 21 -28 58 -39 81 -23
8 4 17 24 21 42 l7 34 31 -55 c18 -30 30 -56 29 -58 -2 -1 -15 3 -29 9 -39 17
-61 -4 -54 -51 8 -64 79 -190 107 -190 29 0 38 34 50 205 10 141 10 179 0 185
-17 10 -8 44 13 48 23 5 33 -24 18 -52 -10 -17 -8 -57 9 -191 11 -93 25 -175
31 -182 14 -16 41 -17 57 -1 28 28 6 111 -51 192 l-21 29 35 -7 c19 -3 45 -15
59 -25 l25 -18 -3 88 c-4 80 -1 93 24 146 15 32 27 65 26 73 -3 28 8 41 30 38
17 -2 23 -10 23 -28z m-473 -656 c-24 -17 -39 -14 -27 5 3 6 16 11 28 11 l21
0 -22 -16z m923 5 c12 -19 -3 -22 -27 -5 l-22 16 21 0 c12 0 25 -5 28 -11z
m-1051 -24 c-4 -8 -12 -15 -20 -15 -8 0 -11 6 -8 15 4 8 12 15 20 15 8 0 11
-6 8 -15z m1180 0 c3 -9 0 -15 -8 -15 -8 0 -16 7 -20 15 -3 9 0 15 8 15 8 0
16 -7 20 -15z m-1296 -57 l3 -26 -85 1 c-46 1 -82 4 -80 6 2 2 32 7 66 10 53
5 63 9 62 24 -3 30 31 15 34 -15z m1418 15 c-1 -15 10 -19 62 -24 34 -3 64 -8
66 -10 2 -2 -34 -5 -80 -6 -81 -1 -84 -1 -84 21 0 25 8 36 26 36 6 0 11 -8 10
-17z m-1667 -29 c-10 -13 -10 -17 2 -25 8 -5 10 -9 4 -9 -5 0 -16 4 -24 9 -18
11 -7 41 15 41 14 0 14 -2 3 -16z m1908 0 c6 -15 -11 -34 -32 -34 -5 0 -4 4 4
9 12 8 12 12 2 25 -11 14 -11 16 3 16 9 0 19 -7 23 -16z m-1183 -176 c44 -48
64 -78 60 -88 -11 -26 -43 -173 -49 -222 -6 -46 -8 -48 -76 -87 -39 -23 -76
-41 -82 -41 -6 0 -52 27 -103 61 l-92 60 28 134 c16 74 31 139 35 145 18 28
166 107 207 110 3 0 36 -33 72 -72z m493 -124 c41 -40 71 -78 69 -85 -2 -8
-17 -67 -31 -133 l-27 -118 77 -78 78 -78 -24 -66 c-21 -62 -25 -66 -48 -61
-51 10 -248 25 -334 25 -101 0 -96 -11 -48 108 l27 67 102 29 c56 16 101 31
99 32 -1 1 -57 -3 -124 -9 l-121 -11 -47 40 c-26 21 -56 46 -67 55 -15 12 -21
32 -25 83 -7 77 13 232 31 243 6 4 65 26 131 48 l120 40 45 -30 c24 -16 77
-62 117 -101z m113 -643 c258 -35 511 -106 696 -196 73 -35 94 -50 101 -72 15
-47 4 -71 -57 -125 -57 -49 -88 -100 -105 -171 -15 -57 -76 -72 -145 -37 -22
11 -51 20 -65 20 -21 0 -26 -4 -23 -21 2 -12 14 -29 28 -38 l25 -15 -19 22
c-28 33 -13 37 43 13 105 -45 152 -22 190 91 12 36 32 74 44 85 54 47 48 48
143 -17 49 -33 104 -73 123 -89 l33 -29 -38 -11 c-22 -5 -77 -16 -124 -23
l-84 -13 -3 -70 c-2 -38 -6 -89 -9 -112 l-5 -43 -77 54 c-42 30 -117 75 -167
101 -139 74 -148 88 -96 147 l29 33 56 -27 c59 -29 72 -48 34 -48 -21 -1 -21
-2 -5 -11 24 -14 47 -4 47 20 0 30 -66 64 -235 120 -272 90 -451 115 -780 108
-248 -5 -392 -24 -558 -72 -220 -63 -340 -117 -345 -153 -4 -26 19 -38 45 -23
16 9 16 10 -4 11 -39 0 -26 19 33 48 l56 27 29 -33 c52 -59 43 -73 -96 -147
-49 -26 -124 -71 -167 -100 -88 -60 -88 -60 -88 51 0 34 -3 75 -6 92 -6 30 -8
30 -93 42 -47 7 -102 17 -121 23 l-34 10 34 30 c19 16 75 56 124 88 l88 59 27
-20 c39 -27 47 -38 65 -93 44 -131 86 -153 197 -106 56 24 71 20 43 -13 l-19
-22 25 15 c14 9 26 26 28 38 3 17 -2 21 -23 21 -14 0 -43 -9 -65 -20 -49 -25
-102 -26 -123 -2 -8 9 -27 48 -41 87 -21 58 -35 78 -81 119 -100 87 -96 132
16 191 205 107 510 186 869 225 130 14 464 4 630 -19z m-1206 -40 c3 -5 -3
-11 -14 -14 -20 -5 -35 5 -23 17 9 9 31 7 37 -3z m1670 0 c8 -13 -3 -19 -24
-14 -11 3 -17 9 -14 14 7 11 31 12 38 0z m-494 -355 c113 -19 254 -51 328 -73
l52 -17 0 -177 0 -177 -32 -11 c-18 -7 -185 -66 -370 -133 l-338 -120 -337
120 c-186 67 -353 126 -370 133 l-33 11 0 178 0 177 73 21 c103 31 238 59 342
71 50 6 104 13 120 15 72 10 475 -3 565 -18z"/>
<path d="M1584 3232 c4 -7 1 -12 -8 -12 -8 0 -20 -9 -26 -20 -8 -14 -8 -20 0
-20 6 0 13 7 16 15 4 8 12 15 20 15 17 0 18 16 2 26 -7 4 -8 3 -4 -4z"/>
<path d="M3407 3233 c-11 -10 -8 -23 4 -23 7 0 17 -7 23 -15 9 -12 18 -13 41
-5 28 9 29 10 3 6 -16 -2 -29 2 -32 10 -3 8 -13 14 -21 14 -9 0 -13 5 -10 10
7 11 2 13 -8 3z"/>
<path d="M1508 3193 c7 -3 16 -2 19 1 4 3 -2 6 -13 5 -11 0 -14 -3 -6 -6z"/>
<path d="M1203 3095 c0 -22 2 -30 4 -17 2 12 2 30 0 40 -3 9 -5 -1 -4 -23z"/>
<path d="M1242 3110 c0 -14 2 -19 5 -12 2 6 2 18 0 25 -3 6 -5 1 -5 -13z"/>
<path d="M3752 3105 c0 -16 2 -22 5 -12 2 9 2 23 0 30 -3 6 -5 -1 -5 -18z"/>
<path d="M3792 3100 c0 -19 2 -27 5 -17 2 9 2 25 0 35 -3 9 -5 1 -5 -18z"/>
<path d="M1181 3044 c0 -11 3 -14 6 -6 3 7 2 16 -1 19 -3 4 -6 -2 -5 -13z"/>
<path d="M3811 3044 c0 -11 3 -14 6 -6 3 7 2 16 -1 19 -3 4 -6 -2 -5 -13z"/>
<path d="M1242 3030 c0 -14 2 -19 5 -12 2 6 2 18 0 25 -3 6 -5 1 -5 -13z"/>
<path d="M3752 3030 c0 -14 2 -19 5 -12 2 6 2 18 0 25 -3 6 -5 1 -5 -13z"/>
<path d="M1477 3034 c-9 -9 16 -44 31 -44 7 0 10 -4 7 -10 -3 -6 1 -7 9 -4 9
3 16 1 16 -6 0 -6 5 -8 10 -5 6 3 10 2 10 -3 0 -5 7 -9 15 -9 8 0 15 5 15 10
0 5 7 7 15 3 9 -3 15 0 15 8 0 7 -7 13 -15 13 -8 0 -15 -4 -15 -8 0 -12 -22
-5 -67 20 -23 14 -40 28 -37 33 6 9 0 11 -9 2z"/>
<path d="M3513 3033 c3 -5 -13 -20 -36 -34 -45 -25 -67 -32 -67 -20 0 4 -7 8
-15 8 -8 0 -15 -6 -15 -13 0 -8 6 -11 15 -8 8 4 15 2 15 -3 0 -5 7 -10 15 -10
8 0 15 4 15 9 0 5 5 6 10 3 6 -3 10 -1 10 5 0 7 7 9 16 6 8 -3 12 -2 9 4 -3 6
0 10 7 10 19 0 41 37 26 46 -6 4 -8 3 -5 -3z"/>
<path d="M1190 3015 c0 -5 5 -17 10 -25 5 -8 10 -10 10 -5 0 6 -5 17 -10 25
-5 8 -10 11 -10 5z"/>
<path d="M3796 3005 c-9 -26 -7 -32 5 -12 6 10 9 21 6 23 -2 3 -7 -2 -11 -11z"/>
<path d="M1250 2994 c0 -6 7 -19 16 -30 14 -18 14 -18 3 6 -14 31 -19 36 -19
24z"/>
<path d="M1036 2969 c6 -11 64 -42 69 -37 2 2 -14 13 -36 25 -21 12 -37 17
-33 12z"/>
<path d="M3935 2959 c-16 -10 -25 -19 -19 -19 7 0 22 9 35 20 30 24 23 24 -16
-1z"/>
<path d="M1163 2955 c0 -8 4 -12 9 -9 5 3 6 10 3 15 -9 13 -12 11 -12 -6z"/>
<path d="M3825 2961 c-3 -5 -2 -12 3 -15 5 -3 9 1 9 9 0 17 -3 19 -12 6z"/>
<path d="M1300 2915 c13 -14 26 -25 28 -25 3 0 -5 11 -18 25 -13 14 -26 25
-28 25 -3 0 5 -11 18 -25z"/>
<path d="M3689 2913 l-24 -28 28 24 c25 23 32 31 24 31 -2 0 -14 -12 -28 -27z"/>
<path d="M3729 2913 l-24 -28 28 24 c25 23 32 31 24 31 -2 0 -14 -12 -28 -27z"/>
<path d="M1265 2910 c10 -11 20 -20 23 -20 3 0 -3 9 -13 20 -10 11 -20 20 -23
20 -3 0 3 -9 13 -20z"/>
<path d="M1244 2876 c1 -20 26 -36 26 -16 0 6 -4 9 -9 5 -5 -3 -11 3 -14 12
-3 15 -4 15 -3 -1z"/>
<path d="M3751 2882 c-1 -13 -5 -20 -11 -17 -5 3 -10 1 -10 -4 0 -16 20 -13
26 4 3 8 4 20 1 27 -3 7 -6 3 -6 -10z"/>
<path d="M1314 2876 c24 -19 32 -20 42 -4 4 7 3 8 -4 4 -6 -4 -22 -2 -34 4
-22 11 -22 10 -4 -4z"/>
<path d="M3677 2879 c-9 -5 -22 -7 -29 -3 -7 4 -8 3 -4 -4 9 -16 18 -15 42 3
22 17 17 19 -9 4z"/>
<path d="M1098 2853 c12 -2 30 -2 40 0 9 3 -1 5 -23 4 -22 0 -30 -2 -17 -4z"/>
<path d="M1568 2853 c7 -3 16 -2 19 1 4 3 -2 6 -13 5 -11 0 -14 -3 -6 -6z"/>
<path d="M3418 2853 c7 -3 16 -2 19 1 4 3 -2 6 -13 5 -11 0 -14 -3 -6 -6z"/>
<path d="M3868 2853 c12 -2 30 -2 40 0 9 3 -1 5 -23 4 -22 0 -30 -2 -17 -4z"/>
<path d="M1388 2843 c7 -3 16 -2 19 1 4 3 -2 6 -13 5 -11 0 -14 -3 -6 -6z"/>
<path d="M1626 2841 c4 -7 7 -23 8 -35 1 -16 8 -21 31 -22 17 0 40 -4 52 -8
20 -7 21 -5 10 23 -9 24 -14 28 -31 21 -34 -12 -36 -12 -57 12 -11 13 -17 17
-13 9z"/>
<path d="M1764 2825 c-3 -14 -10 -22 -15 -19 -12 7 -11 -7 1 -26 12 -19 16
-13 24 33 8 41 0 51 -10 12z"/>
<path d="M3227 2815 c7 -48 11 -54 23 -35 11 17 13 37 3 26 -4 -3 -13 6 -20
21 -12 27 -12 27 -6 -12z"/>
<path d="M3358 2831 c-15 -21 -23 -22 -55 -10 -18 7 -23 3 -32 -22 -10 -28 -9
-30 12 -23 12 4 36 8 52 8 23 1 30 6 31 22 1 12 4 26 8 33 12 19 -2 12 -16 -8z"/>
<path d="M3598 2843 c7 -3 16 -2 19 1 4 3 -2 6 -13 5 -11 0 -14 -3 -6 -6z"/>
<path d="M1433 2833 c9 -2 23 -2 30 0 6 3 -1 5 -18 5 -16 0 -22 -2 -12 -5z"/>
<path d="M1495 2830 l-20 -9 20 1 c11 0 34 4 50 8 l30 8 -30 0 c-16 0 -39 -3
-50 -8z"/>
<path d="M3455 2830 c17 -4 39 -8 50 -8 l20 -1 -20 9 c-11 5 -33 8 -50 8 l-30
0 30 -8z"/>
<path d="M3543 2833 c9 -2 23 -2 30 0 6 3 -1 5 -18 5 -16 0 -22 -2 -12 -5z"/>
<path d="M1359 2788 c13 -17 8 -38 -9 -38 -5 0 -11 8 -13 18 -4 15 -5 15 -6 0
-2 -25 19 -33 37 -14 15 15 15 17 -3 34 -17 15 -18 15 -6 0z"/>
<path d="M1465 2790 c-3 -6 -11 -8 -16 -5 -5 4 -9 1 -9 -4 0 -14 17 -14 25 -1
5 8 11 8 20 0 10 -8 15 -8 21 2 4 7 4 10 -1 6 -4 -4 -14 -3 -21 3 -8 7 -14 7
-19 -1z"/>
<path d="M3515 2790 c-3 -6 -11 -7 -17 -4 -7 4 -8 2 -4 -5 6 -9 11 -9 21 -1 9
8 15 8 20 0 10 -16 25 -12 24 8 0 11 -2 12 -6 4 -4 -9 -8 -10 -18 -2 -9 8 -15
8 -20 0z"/>
<path d="M3599 2783 c-13 -16 -12 -17 4 -4 9 7 17 15 17 17 0 8 -8 3 -21 -13z"/>
<path d="M3630 2784 c-11 -12 -11 -18 2 -31 18 -18 39 -10 37 15 -1 15 -2 15
-6 0 -2 -10 -8 -18 -13 -18 -16 0 -22 21 -10 35 7 8 10 15 7 15 -2 0 -10 -7
-17 -16z"/>
<path d="M1616 2765 c4 -8 8 -15 10 -15 2 0 4 7 4 15 0 8 -4 15 -10 15 -5 0
-7 -7 -4 -15z"/>
<path d="M3370 2765 c0 -8 2 -15 4 -15 2 0 6 7 10 15 3 8 1 15 -4 15 -6 0 -10
-7 -10 -15z"/>
<path d="M1224 2738 l-29 -33 33 29 c17 17 32 31 32 33 0 8 -8 1 -36 -29z"/>
<path d="M3740 2767 c0 -2 15 -16 33 -33 l32 -29 -29 33 c-28 30 -36 37 -36
29z"/>
<path d="M1411 2733 c-10 -26 -10 -27 4 -9 8 11 15 23 15 28 0 15 -7 8 -19
-19z"/>
<path d="M3570 2754 c0 -6 7 -19 16 -30 14 -18 14 -18 3 6 -14 31 -19 36 -19
24z"/>
<path d="M1285 2704 c-9 -15 -12 -23 -6 -20 11 7 35 46 28 46 -3 0 -12 -12
-22 -26z"/>
<path d="M1530 2721 c0 -6 4 -13 10 -16 6 -3 7 1 4 9 -7 18 -14 21 -14 7z"/>
<path d="M1560 2709 c0 -5 5 -7 10 -4 6 3 10 8 10 11 0 2 -4 4 -10 4 -5 0 -10
-5 -10 -11z"/>
<path d="M1421 2694 c0 -11 3 -14 6 -6 3 7 2 16 -1 19 -3 4 -6 -2 -5 -13z"/>
<path d="M3571 2694 c0 -11 3 -14 6 -6 3 7 2 16 -1 19 -3 4 -6 -2 -5 -13z"/>
<path d="M3700 2706 c0 -2 8 -10 18 -17 15 -13 16 -12 3 4 -13 16 -21 21 -21
13z"/>
<path d="M1511 2668 c2 -32 2 -32 6 -5 4 24 7 26 19 16 12 -10 17 -10 27 0 9
10 8 11 -4 6 -10 -4 -20 -2 -24 4 -13 22 -25 10 -24 -21z"/>
<path d="M3465 2689 c-4 -6 -14 -8 -24 -4 -12 5 -13 4 -4 -6 10 -10 15 -10 27
0 12 10 15 8 19 -16 4 -27 4 -27 6 5 1 31 -11 43 -24 21z"/>
<path d="M1361 2674 c0 -11 3 -14 6 -6 3 7 2 16 -1 19 -3 4 -6 -2 -5 -13z"/>
<path d="M1720 2676 c-6 -9 -22 -18 -33 -22 -29 -9 -117 -83 -117 -97 0 -7 6
-3 12 8 12 19 12 19 18 -5 7 -27 24 -29 118 -15 42 6 42 6 42 49 0 24 -6 56
-14 70 -11 23 -15 24 -26 12z"/>
<path d="M3252 2662 c-6 -14 -12 -45 -12 -68 0 -43 0 -43 43 -49 93 -14 110
-12 117 15 6 24 6 24 18 5 6 -11 12 -15 12 -8 0 6 -15 23 -32 37 -18 14 -40
33 -49 41 -9 8 -20 15 -26 15 -6 0 -21 9 -34 19 -24 19 -25 19 -37 -7z"/>
<path d="M3631 2674 c0 -11 3 -14 6 -6 3 7 2 16 -1 19 -3 4 -6 -2 -5 -13z"/>
<path d="M1440 2671 c0 -17 18 -21 24 -6 3 9 0 15 -9 15 -8 0 -15 -4 -15 -9z"/>
<path d="M1572 2490 c0 -14 2 -19 5 -12 2 6 2 18 0 25 -3 6 -5 1 -5 -13z"/>
<path d="M3422 2490 c0 -14 2 -19 5 -12 2 6 2 18 0 25 -3 6 -5 1 -5 -13z"/>
<path d="M1581 2434 c0 -11 3 -14 6 -6 3 7 2 16 -1 19 -3 4 -6 -2 -5 -13z"/>
<path d="M3411 2434 c0 -11 3 -14 6 -6 3 7 2 16 -1 19 -3 4 -6 -2 -5 -13z"/>
<path d="M2440 2078 l0 -52 -32 47 c-18 26 -41 47 -50 47 -16 0 -18 -10 -18
-81 0 -71 2 -80 18 -77 13 3 17 13 17 46 0 23 2 42 5 42 3 -1 17 -19 32 -40
18 -26 36 -40 49 -40 20 0 21 4 15 46 -3 26 -6 62 -6 80 0 24 -5 34 -15 34
-11 0 -15 -12 -15 -52z"/>
<path d="M2541 2050 c-17 -39 -31 -72 -31 -75 0 -12 38 -3 44 10 8 22 53 19
66 -5 6 -11 18 -20 26 -20 19 0 15 19 -17 105 -29 77 -48 74 -88 -15z m59 -5
c0 -8 -7 -15 -15 -15 -9 0 -12 6 -9 15 4 8 10 15 15 15 5 0 9 -7 9 -15z"/>
<path d="M2710 2061 c-7 -31 -14 -66 -17 -78 -4 -18 -1 -23 15 -23 15 0 21 9
27 43 l8 42 10 -47 c6 -27 15 -48 22 -48 6 0 21 19 32 43 l22 42 0 -47 c1 -69
26 -65 35 5 11 94 9 109 -16 105 -14 -2 -31 -18 -44 -41 l-21 -38 -11 44 c-8
30 -18 46 -31 50 -17 4 -22 -3 -31 -52z"/>
<path d="M2170 2076 c0 -18 3 -54 6 -80 5 -36 11 -46 25 -46 15 0 17 5 12 33
l-6 32 30 -27 c16 -16 40 -28 53 -28 l24 0 -28 29 c-23 24 -26 32 -17 49 6 12
11 25 11 31 0 22 -33 41 -71 41 -38 0 -39 -1 -39 -34z m66 -7 c3 -6 1 -16 -5
-22 -9 -9 -14 -8 -21 3 -5 8 -10 18 -10 23 0 11 28 8 36 -4z"/>
<path d="M2082 2028 c3 -57 1 -63 -17 -63 -16 0 -22 10 -30 55 -7 37 -15 55
-25 55 -12 0 -14 -10 -12 -44 7 -91 43 -126 98 -99 26 12 29 19 28 58 0 63
-12 100 -30 100 -12 0 -14 -12 -12 -62z"/>
<path d="M2926 2073 c-8 -29 -26 -136 -23 -139 1 -2 22 -6 45 -10 34 -5 42 -4
42 9 0 9 -10 17 -22 19 -34 5 -30 34 5 30 35 -4 38 25 3 34 -33 8 -23 35 12
32 35 -4 40 20 5 28 -15 3 -36 8 -45 10 -10 3 -18 -2 -22 -13z"/>
<path d="M3060 2018 c-6 -24 -15 -57 -20 -75 -8 -33 -5 -43 16 -43 7 0 16 16
20 35 9 51 20 51 34 -1 13 -46 46 -77 55 -52 14 42 35 141 31 145 -13 13 -36
-9 -42 -41 -8 -43 -21 -38 -30 10 -6 34 -27 64 -44 64 -5 0 -14 -19 -20 -42z"/>
<path d="M1829 2021 c-17 -18 -29 -40 -29 -56 0 -30 49 -85 75 -85 24 0 72 27
79 45 17 46 4 91 -35 110 -40 21 -57 19 -90 -14z m80 -25 c7 -8 11 -27 9 -43
-3 -24 -8 -28 -33 -28 -23 0 -32 6 -39 27 -16 46 33 80 63 44z"/>
<path d="M1687 1992 c-47 -15 -59 -38 -20 -36 17 0 24 -11 39 -58 16 -53 34
-72 48 -49 3 5 -3 34 -13 64 -19 55 -19 56 -1 62 11 4 17 12 13 21 -6 17 -4
17 -66 -4z"/>
<path d="M3243 1998 c-3 -6 2 -17 11 -24 17 -12 17 -15 -2 -67 -12 -30 -18
-58 -15 -61 17 -17 34 -1 49 49 15 46 22 55 41 55 41 0 25 26 -27 42 -34 11
-52 13 -57 6z"/>
<path d="M2031 1711 c-12 -12 -21 -25 -21 -31 0 -11 28 -40 56 -56 27 -17 5
-40 -24 -25 -15 8 -23 7 -33 -5 -17 -21 3 -34 52 -34 67 0 80 58 22 95 -40 25
-41 35 -4 35 17 0 33 5 36 11 9 14 4 18 -32 25 -24 5 -36 1 -52 -15z"/>
<path d="M2197 1710 c-33 -26 -43 -70 -23 -108 17 -33 34 -42 76 -42 39 0 70
29 77 72 5 32 1 41 -25 68 -36 35 -69 38 -105 10z m87 -52 c8 -22 6 -32 -9
-48 -24 -27 -41 -25 -61 5 -14 21 -15 31 -5 51 16 35 62 30 75 -8z"/>
<path d="M2408 1714 c-48 -25 -54 -94 -12 -131 37 -34 128 -31 106 3 -4 6 -22
11 -40 11 -36 0 -52 15 -52 49 0 29 19 44 57 44 22 0 33 5 33 14 0 28 -50 34
-92 10z"/>
<path d="M2587 1714 c-26 -14 -47 -49 -47 -79 0 -7 12 -28 26 -45 23 -27 32
-31 68 -28 53 4 58 32 7 34 -33 2 -61 24 -61 49 0 23 39 48 65 42 30 -5 47 19
24 34 -20 13 -50 10 -82 -7z"/>
<path d="M2730 1645 l0 -85 45 0 c33 0 45 4 45 15 0 9 -9 15 -25 15 -18 0 -25
5 -25 20 0 15 7 20 25 20 16 0 25 6 25 15 0 9 -9 15 -25 15 -16 0 -25 6 -25
15 0 9 9 15 25 15 18 0 25 5 25 20 0 17 -7 20 -45 20 l-45 0 0 -85z"/>
<path d="M2877 1723 c-4 -3 -7 -42 -7 -85 0 -71 2 -78 20 -78 16 0 20 7 20 33
l0 32 26 -32 c14 -18 34 -33 45 -33 25 0 24 9 -6 40 -23 24 -24 28 -10 40 8 7
15 26 15 41 0 22 -6 32 -26 39 -29 11 -68 13 -77 3z m61 -51 c-5 -27 -28 -26
-28 2 0 19 4 24 15 19 9 -3 15 -12 13 -21z"/>
<path d="M1822 1423 l3 -37 330 -118 c182 -65 337 -118 345 -118 8 0 164 53
345 118 l330 118 3 37 3 37 -681 0 -681 0 3 -37z m368 -8 c0 -8 11 -17 25 -21
24 -6 25 -8 10 -24 -9 -10 -13 -24 -9 -35 6 -15 4 -17 -16 -12 -13 3 -32 2
-42 -4 -16 -8 -18 -6 -18 20 0 16 -5 33 -11 37 -8 4 -2 12 15 21 14 7 26 18
26 23 0 6 5 10 10 10 6 0 10 -7 10 -15z m330 -15 c10 -23 19 -30 41 -30 38 0
43 -13 15 -39 -17 -16 -21 -29 -18 -53 4 -29 3 -31 -19 -23 -32 10 -60 10 -81
1 -15 -7 -18 -3 -18 26 0 22 -7 42 -20 53 -24 22 -17 35 19 35 22 0 31 7 41
30 7 17 16 30 20 30 4 0 13 -13 20 -30z m342 -13 c10 -4 11 -7 1 -18 -7 -7
-13 -24 -13 -36 0 -20 -3 -22 -18 -14 -11 6 -24 6 -35 0 -14 -8 -17 -6 -17 14
0 12 -6 29 -12 36 -11 11 -10 14 1 18 7 3 20 14 29 24 16 18 16 18 33 0 10
-11 24 -21 31 -24z"/>
</g>
</svg>
